<svg width="50" height="50" viewBox="0 0 50 50" fill="none" xmlns="http://www.w3.org/2000/svg">
<g clip-path="url(#clip0_66_138)">
<path fill-rule="evenodd" clip-rule="evenodd" d="M0.0078125 45.1542L0.00816811 33.156L5.79465 34.1503L8.07881 12.1375L14.5114 7.27462L17.8171 10.1236L17.8818 11.9447L38.2251 -0.00537109L49.173 27.655V28.3295L37.9627 1.00204L16.7322 13.4293L16.5648 15.924L38.4022 4.19525L49.173 29.2797L49.1734 30.186L38.5505 8.6771L16.3834 19.2025L16.2675 21.1347L38.6831 11.4208L49.1727 31.4093L49.173 32.7129L39.2545 16.07L16.0378 24.4486L15.9347 26.4212L39.359 19.1517L49.1727 33.5946L49.1716 34.8338L48.6514 34.8347L39.956 24.3044L15.7029 29.9075L15.5997 31.979L40.2935 27.6713L47.4844 34.8356L43.5725 34.8347L43.3659 32.4439L40.4513 36.8074L39.9262 29.3813L39.5187 29.067L38.9146 29.0629L39.555 42.7071L32.5478 42.0621L32.5492 44.189L11.7689 48.4227L0.0078125 45.1542ZM14.1718 8.68345L8.59616 12.7426L6.11004 34.837L0.822415 34.0237L0.82277 36.2345L9.65077 37.3857L11.3813 16.0641L13.8848 14.6077L14.1718 8.68345ZM18.9158 32.6262L18.8283 35.3151L16.0609 35.5391L16.0613 37.8356L18.7397 37.7658L18.6725 38.956L19.506 38.9809L19.5497 37.7481L25.8724 37.6238L25.8738 35.7138L23.4439 31.8107L23.1754 31.8415L23.0442 34.9227L19.5945 35.257L19.6674 32.55L18.9158 32.6262ZM27.1276 31.114L27.0838 41.8358L27.9379 41.951L27.8504 30.9974L27.1276 31.114Z" fill="#1B1918"/>
<path fill-rule="evenodd" clip-rule="evenodd" d="M40.4531 37.3L40.8034 42.8215L43.3737 43.0438L43.0235 37.3H40.4531Z" fill="#1B1918"/>
<mask id="mask0_66_138" style="mask-type:luminance" maskUnits="userSpaceOnUse" x="36" y="37" width="14" height="14">
<path d="M36.4102 37.2737H50.0003V50.0003H36.4102V37.2737Z" fill="white"/>
</mask>
<g mask="url(#mask0_66_138)">
<path fill-rule="evenodd" clip-rule="evenodd" d="M43.7941 37.3L44.2574 43.1254L49.6773 43.6062L49.6777 44.9751H43.2459L48.579 46.7418L36.4609 46.7668L43.4777 49.9917H50.0094V37.3H43.7941Z" fill="#1B1918"/>
</g>
</g>
<defs>
<clipPath id="clip0_66_138">
<rect width="50" height="50" fill="white"/>
</clipPath>
</defs>
</svg>
