<svg width="47" height="53" viewBox="0 0 47 53" fill="none" xmlns="http://www.w3.org/2000/svg">
<path fill-rule="evenodd" clip-rule="evenodd" d="M26.3952 43.2598C25.2998 42.716 23.9909 42.4 22.585 42.4C18.7323 42.4 15.6094 44.7729 15.6094 47.7C15.6094 50.6271 18.7323 53 22.585 53C26.4198 53 29.5319 50.6487 29.5602 47.74L29.9501 42.4162H32.6586L33.0485 47.74C33.0767 50.6487 36.1889 53 40.0239 53C43.8763 53 46.9995 50.6271 46.9995 47.7C46.9995 44.7729 43.8763 42.4 40.0239 42.4C38.6178 42.4 37.3088 42.716 36.2135 43.2598L33.0455 0L31.3044 0.0736039L29.5631 0L26.3952 43.2598ZM32.4645 39.7662L31.3044 23.9239L30.1442 39.7662H32.4645ZM33.0481 18.598C33.0481 19.3287 32.2674 19.9211 31.3043 19.9211C30.3413 19.9211 29.5604 19.3287 29.5604 18.598C29.5604 17.8672 30.3413 17.2748 31.3043 17.2748C32.2674 17.2748 33.0481 17.8672 33.0481 18.598ZM19.0972 47.7C19.0972 46.2364 20.6586 45.05 22.585 45.05C24.5111 45.05 26.0727 46.2364 26.0727 47.7C26.0727 49.1636 24.5111 50.35 22.585 50.35C20.6586 50.35 19.0972 49.1636 19.0972 47.7ZM40.0239 45.05C38.0976 45.05 36.5361 46.2364 36.5361 47.7C36.5361 49.1636 38.0976 50.35 40.0239 50.35C41.95 50.35 43.5117 49.1636 43.5117 47.7C43.5117 46.2364 41.95 45.05 40.0239 45.05Z" fill="#333333"/>
<path d="M6.88937 14.575V0C6.88937 0 0.824103 2.99539 0.0048215 14.5724C-0.0985914 16.0338 1.47527 17.225 3.40158 17.225C5.32771 17.225 6.88937 16.0386 6.88937 14.575Z" fill="#333333"/>
<path d="M1.66016 21.8625C1.66016 20.7649 2.83118 19.875 4.276 19.875C5.72064 19.875 6.89184 20.7649 6.89184 21.8625V21.9762L1.66016 25.9512V21.8625Z" fill="#333333"/>
<path d="M1.66016 29.6986V31.9135L6.89184 27.9385V25.7236L1.66016 29.6986Z" fill="#333333"/>
<path d="M1.66016 37.8759V35.661L6.89184 31.686V33.9009L1.66016 37.8759Z" fill="#333333"/>
<path d="M1.66016 41.6237V51.0124C1.66016 52.11 2.83118 52.9999 4.276 52.9999C5.72064 52.9999 6.89184 52.11 6.89184 51.0124V37.6487L1.66016 41.6237Z" fill="#333333"/>
</svg>
