<svg width="51" height="53" viewBox="0 0 51 53" fill="none" xmlns="http://www.w3.org/2000/svg">
<path fill-rule="evenodd" clip-rule="evenodd" d="M18.8637 3.23081L21.0647 1.97844L22.5131 4.48704C24.4699 3.84647 26.6796 4.63594 27.754 6.48357L34.4336 17.9691C35.6637 20.0845 34.9399 22.7857 32.817 24.0026L31.5639 24.7209L32.5639 26.6536L28.6148 28.6656L27.7152 26.9268L26.7298 27.4916C24.6068 28.7084 21.8885 27.9801 20.6584 25.8648L16.3432 18.4447C12.5581 20.6218 9.9478 23.0528 8.5477 25.8327C7.36928 28.1724 6.98189 30.8924 7.6338 34.1582C9.74887 32.9889 12.1812 32.3234 14.769 32.3234C19.598 32.3234 23.8857 34.641 26.5805 38.2247L44.4305 28.1653L45.8967 30.7295L28.1116 40.7521C29.0261 42.6732 29.538 44.823 29.538 47.0924C29.538 48.1039 29.4362 49.0918 29.2426 50.0462H48.7377C49.5534 50.0462 50.2146 50.7074 50.2146 51.5231C50.2146 52.3388 49.5534 53 48.7377 53H1.22891C0.438491 51.1909 0 49.1928 0 47.0924C0 42.6685 1.94509 38.6989 5.02677 35.992C3.90225 31.6685 4.22175 27.8555 5.90952 24.5041C7.66009 21.0282 10.792 18.2322 14.8583 15.8913L13.9789 14.3791C13.0336 12.7539 13.242 10.7827 14.3522 9.40473L12.7848 6.68975L15.0124 5.4223L13.1793 2.13261L17.0635 0L18.8637 3.23081ZM31.8709 19.4381L25.1913 7.95235C24.7813 7.24728 23.8753 7.00448 23.1675 7.41018L17.0805 10.8992C16.3728 11.3048 16.1316 12.2052 16.5416 12.9103L23.2211 24.3959C23.6311 25.1011 24.5372 25.3439 25.2449 24.9382L31.332 21.4491C32.0397 21.0436 32.2809 20.1431 31.8709 19.4381ZM26.2127 50.0462C26.455 49.1039 26.5842 48.1147 26.5842 47.0924C26.5842 45.3501 26.2071 43.696 25.53 42.207L18.435 46.2054L16.9688 43.6412L23.9789 39.6906C21.8134 36.9994 18.4923 35.2772 14.769 35.2772C8.24361 35.2772 2.9538 40.567 2.9538 47.0924C2.9538 48.1147 3.08298 49.1039 3.32528 50.0462H26.2127Z" fill="#333333"/>
</svg>
