<svg width="50" height="50" viewBox="0 0 50 50" fill="none" xmlns="http://www.w3.org/2000/svg">
<g clip-path="url(#clip0_66_149)">
<path d="M24.5791 28.2585C24.7164 28.2997 24.8582 28.3203 25 28.3203C25.1418 28.3203 25.2836 28.2997 25.4209 28.2585C28.5688 27.3142 31.2698 25.4212 33.2316 22.7845C35.1935 20.1477 36.2305 17.0167 36.2305 13.7302V5.37109C36.2305 4.56211 35.5746 3.90625 34.7656 3.90625C32.9146 3.90625 31.2504 2.87773 30.4227 1.22227L30.2165 0.809863C29.9684 0.313477 29.4611 0 28.9062 0H21.0938C20.5389 0 20.0316 0.313477 19.7835 0.809766L19.5773 1.22207C18.7496 2.87773 17.0854 3.90625 15.2344 3.90625C14.4254 3.90625 13.7695 4.56211 13.7695 5.37109V13.7302C13.7695 17.0167 14.8065 20.1477 16.7684 22.7845C18.7302 25.4212 21.4312 27.3142 24.5791 28.2585ZM16.6992 6.69951C18.9161 6.28105 20.8435 4.92217 21.9849 2.92969H28.0151C29.1565 4.92207 31.0839 6.28105 33.3008 6.69951V13.7303C33.3008 19.0287 29.9833 23.6312 25 25.3182C20.0167 23.6312 16.6992 19.0287 16.6992 13.7303V6.69951Z" fill="black"/>
<path d="M23.6177 18.3871C23.9926 18.3871 24.3675 18.2441 24.6535 17.958L30.1777 12.4337C30.7498 11.8617 30.7498 10.9342 30.1777 10.3622C29.6057 9.79009 28.6782 9.79009 28.1061 10.3622L23.6176 14.8505L21.8913 13.1243C21.3193 12.5522 20.3917 12.5522 19.8197 13.1243C19.2476 13.6963 19.2476 14.6238 19.8197 15.1958L22.5818 17.958C22.8679 18.2441 23.2428 18.3871 23.6177 18.3871Z" fill="black"/>
<path d="M44.2541 34.4442C45.3905 33.2966 46.0938 31.7193 46.0938 29.9805C46.0938 26.4804 43.2462 23.6328 39.7461 23.6328C36.246 23.6328 33.3984 26.4804 33.3984 29.9805C33.3984 31.7163 34.0994 33.291 35.2323 34.4382C32.8917 35.5828 31.0519 37.5932 30.1338 40.0665C29.7967 39.8003 29.4388 39.5596 29.0625 39.3474C29.8768 38.4056 30.3711 37.1797 30.3711 35.8398C30.3711 32.8782 27.9616 30.4688 25 30.4688C22.0384 30.4688 19.6289 32.8782 19.6289 35.8398C19.6289 37.1797 20.1232 38.4056 20.9375 39.3474C20.5612 39.5595 20.2033 39.8003 19.8662 40.0665C18.9481 37.5932 17.1082 35.5828 14.7677 34.4382C15.9006 33.291 16.6016 31.7163 16.6016 29.9805C16.6016 26.4804 13.754 23.6328 10.2539 23.6328C6.75381 23.6328 3.90625 26.4804 3.90625 29.9805C3.90625 31.7193 4.60947 33.2966 5.7459 34.4442C2.3459 36.1155 0 39.6149 0 43.6523V48.5352C0 49.3441 0.655859 50 1.46484 50H48.5352C49.3441 50 50 49.3441 50 48.5352V43.6523C50 39.6149 47.6541 36.1155 44.2541 34.4442ZM36.3281 29.9805C36.3281 28.0958 37.8614 26.5625 39.7461 26.5625C41.6308 26.5625 43.1641 28.0958 43.1641 29.9805C43.1641 31.8651 41.6308 33.3984 39.7461 33.3984C37.8614 33.3984 36.3281 31.8651 36.3281 29.9805ZM22.5586 35.8398C22.5586 34.4937 23.6538 33.3984 25 33.3984C26.3462 33.3984 27.4414 34.4937 27.4414 35.8398C27.4414 37.186 26.3462 38.2812 25 38.2812C23.6538 38.2812 22.5586 37.186 22.5586 35.8398ZM6.83594 29.9805C6.83594 28.0958 8.36924 26.5625 10.2539 26.5625C12.1386 26.5625 13.6719 28.0958 13.6719 29.9805C13.6719 31.8651 12.1386 33.3984 10.2539 33.3984C8.36924 33.3984 6.83594 31.8651 6.83594 29.9805ZM2.92969 43.6523C2.92969 39.6138 6.21533 36.3281 10.2539 36.3281C14.0525 36.3281 17.185 39.2027 17.5434 42.9391C17.0035 44.0396 16.6992 45.2758 16.6992 46.582V47.0703H2.92969V43.6523ZM30.3711 47.0703H19.6289V46.582C19.6289 43.6204 22.0384 41.2109 25 41.2109C27.9616 41.2109 30.3711 43.6204 30.3711 46.582V47.0703ZM47.0703 47.0703H33.3008V46.582C33.3008 45.2758 32.9965 44.0396 32.4566 42.9391C32.815 39.2027 35.9475 36.3281 39.7461 36.3281C43.7847 36.3281 47.0703 39.6138 47.0703 43.6523V47.0703Z" fill="black"/>
</g>
<defs>
<clipPath id="clip0_66_149">
<rect width="50" height="50" fill="white"/>
</clipPath>
</defs>
</svg>
